<svg xmlns="http://www.w3.org/2000/svg" width="161.32" height="28.907" viewBox="0 0 161.32 28.907"><defs><style>.a{fill:#ca113c;}</style></defs><path class="a" d="M53.647,72.551V44.044h13.09a8.659,8.659,0,0,1,3.854.864,9.987,9.987,0,0,1,3.031,2.248,10.5,10.5,0,0,1,1.988,3.172,9.524,9.524,0,0,1,.722,3.593,10.156,10.156,0,0,1-1.083,4.638,9.453,9.453,0,0,1-3.011,3.512l6.022,10.48H69.427L64.408,63.8H61.476v8.753Zm7.829-15.578h4.939a1.733,1.733,0,0,0,1.345-.8,3.593,3.593,0,0,0,.623-2.249,3.23,3.23,0,0,0-.723-2.269,2.024,2.024,0,0,0-1.445-.782H61.476Zm39.588,8.752v6.826H80.748V44.044H100.7V50.87H88.577v4.015H98.935v6.343H88.577v4.5Zm3.652,6.826V44.044h10.962a16.035,16.035,0,0,1,6.223,1.125,12.523,12.523,0,0,1,7.227,7.568,16.337,16.337,0,0,1,.924,5.521,16.118,16.118,0,0,1-1.024,5.882,12.752,12.752,0,0,1-2.911,4.5,13.05,13.05,0,0,1-4.537,2.89,16.248,16.248,0,0,1-5.9,1.024ZM122.1,58.258a9.753,9.753,0,0,0-.442-3.011,6.726,6.726,0,0,0-1.265-2.329,5.7,5.7,0,0,0-2.028-1.505,6.483,6.483,0,0,0-2.689-.542h-3.133V65.725h3.133a6.386,6.386,0,0,0,2.73-.562,5.721,5.721,0,0,0,2.028-1.565,6.9,6.9,0,0,0,1.244-2.37A10.005,10.005,0,0,0,122.1,58.258Zm35.613,6.986a6.228,6.228,0,0,1-3.012,5.58,10.386,10.386,0,0,1-3.272,1.3,17.9,17.9,0,0,1-3.955.422H133.464V44.044H150a5.636,5.636,0,0,1,2.691.642,6.7,6.7,0,0,1,2.047,1.667,7.645,7.645,0,0,1,1.3,2.328,7.953,7.953,0,0,1,.461,2.67,7.723,7.723,0,0,1-1.023,3.834,6.426,6.426,0,0,1-3.072,2.751,6.947,6.947,0,0,1,5.3,7.308ZM141.292,50.709v4.377h5.34a2.583,2.583,0,0,0,1.466-.443,1.984,1.984,0,0,0,.662-1.766,2.137,2.137,0,0,0-.562-1.666,1.922,1.922,0,0,0-1.325-.5Zm8.473,12.928a2.707,2.707,0,0,0-.563-1.746,1.769,1.769,0,0,0-1.445-.7h-6.465v4.777h6.183a2.33,2.33,0,0,0,1.626-.6A2.215,2.215,0,0,0,149.765,63.637Zm24.248,9.154a13.7,13.7,0,0,1-5.9-1.244,14.585,14.585,0,0,1-4.537-3.272,14.81,14.81,0,0,1-2.931-4.638,14.346,14.346,0,0,1-1.044-5.38,13.992,13.992,0,0,1,1.084-5.421,14.411,14.411,0,0,1,3.031-4.6,14.776,14.776,0,0,1,4.617-3.171,14.234,14.234,0,0,1,5.841-1.185,13.719,13.719,0,0,1,5.9,1.245,14.443,14.443,0,0,1,4.536,3.292,14.772,14.772,0,0,1,2.911,4.657,14.5,14.5,0,0,1,1.023,5.34,13.858,13.858,0,0,1-1.083,5.4,14.63,14.63,0,0,1-3.011,4.577,14.808,14.808,0,0,1-4.6,3.192A14.029,14.029,0,0,1,174.013,72.791ZM167.55,58.337a9.709,9.709,0,0,0,.4,2.791,7.293,7.293,0,0,0,1.2,2.389,6.065,6.065,0,0,0,2.029,1.686,6.86,6.86,0,0,0,5.841-.021,5.935,5.935,0,0,0,2.028-1.727,7.417,7.417,0,0,0,1.164-2.428,10.23,10.23,0,0,0,.382-2.77,9.743,9.743,0,0,0-.4-2.791,6.919,6.919,0,0,0-1.225-2.369,6.614,6.614,0,0,0-7.83-1.625,5.985,5.985,0,0,0-2.027,1.706,7.225,7.225,0,0,0-1.185,2.409A10.008,10.008,0,0,0,167.55,58.337Zm28.626-14.293,5.179,8.993,5.18-8.993h8.431L205.451,58.5l9.194,14.053h-8.431l-4.858-8.592L196.5,72.551h-8.472L197.221,58.5l-9.516-14.453Zm-21.38,9.7-2.982,4.2,2.495.73-1.46,4.2,4.015-4.745-2.678-1.216Z" transform="translate(-53.647 -43.884)"/></svg>